<svg xmlns="http://www.w3.org/2000/svg" width="1440" height="1012" viewBox="0 0 1440 1012">
    <defs>
        <linearGradient id="a" x1="100%" x2="0%" y1="50%" y2="50%">
            <stop offset="0%" stop-color="#FFF" stop-opacity="0"/>
            <stop offset="100%" stop-color="#FFF"/>
            <stop offset="100%" stop-color="#FFF"/>
        </linearGradient>
    </defs>
    <g fill="none" fill-rule="evenodd">
        <path fill="#2C2D50" d="M0 0h1440v1011H0z"/>
        <path fill="#14152B" d="M0 1010.198h1440v-870c-102.465-51.397-185.356-79.82-248.673-85.269C990.952 37.686 773.476 83.111 690.6 77.651 564.586 69.35 470.053 65.198 407 65.198c-154.738 0-290.405 25-407 75v870z" opacity=".404"/>
        <path fill="#14152B" d="M1440 1011.037H0v-870c102.465-51.397 185.356-79.82 248.673-85.269 42.732-3.677 272.92-9.793 348.028 17 6.874 2.452-39.598 12.308-139.417 29.568C564.61 70.987 635.85 54.155 671 51.84c126.014-8.302 298.947 14.198 362 14.198 154.738 0 290.405 25 407 75v870z" opacity=".404"/>
        <path fill="#14152B" d="M1440 1010.583H0v-870c121.234-81.109 285.66-124.775 493.277-131 207.617-6.226 523.192 37.441 946.723 131v870z" opacity=".404"/>
        <rect width="100" height="20.358" x="670" y="236" fill="url(#a)" opacity=".055" rx="10.179" transform="rotate(-30 720 246.179)"/>
    </g>
</svg>
