<svg xmlns="http://www.w3.org/2000/svg" width="1440" height="1667" viewBox="0 0 1440 1667">
    <defs>
        <linearGradient id="a" x1="100%" x2="0%" y1="50%" y2="50%">
            <stop offset="0%" stop-color="#FFF" stop-opacity="0"/>
            <stop offset="100%" stop-color="#FFF"/>
            <stop offset="100%" stop-color="#FFF"/>
        </linearGradient>
    </defs>
    <g fill="none" fill-rule="evenodd" transform="translate(0 -5.316)">
        <path fill="#13132A" d="M533.833 210.316c19.415-39.113 59.552-71.707 139.408-92.765 37.054-9.771 71.995-11.177 103.167-6.477 34.474-22.82 80.517-36.758 131.092-36.758 29.46 0 57.381 4.729 82.374 13.188 20.582-11.623 43.944-20.805 69.306-26.66 62.956-14.535 123.823-5.24 165.93 20.914 43.366-28.204 100.067-52.092 164.122-66.88 155.788-35.967 296.08-4.486 313.348 70.314 17.27 74.8-95.023 164.594-250.812 200.561a613.091 613.091 0 0 1-11.768 2.596v1251.967c-250.733 50-494.322 75-730.766 75-236.443 0-472.855-25-709.234-75v-1330h533.833z"/>
        <path fill="#13132A" d="M0 210.316h1440v1330c-102.465 51.397-185.356 79.82-248.673 85.269-200.375 17.243-417.851-28.183-500.727-22.723-126.014 8.303-220.547 12.454-283.6 12.454-154.738 0-290.405-25-407-75v-1330z" opacity=".404"/>
        <path fill="#13132A" d="M1440 210.316H0v1330c102.465 51.397 185.356 79.82 248.673 85.269 42.732 3.677 272.92 9.792 348.028-17 6.874-2.452-39.598-12.308-139.417-29.569 107.327 31.35 178.566 48.182 213.716 50.498 126.014 8.302 298.947-14.198 362-14.198 154.738 0 290.405-25 407-75v-1330z" opacity=".404"/>
        <path fill="#13132A" d="M1440 210.316H0v1330c121.234 81.108 285.66 124.774 493.277 131 207.617 6.225 523.192-37.442 946.723-131v-1330z" opacity=".404"/>
        <rect width="100" height="20" x="669.301" y="275.976" fill="url(#a)" opacity=".05" rx="10" transform="rotate(-30 719.301 285.976)"/>
    </g>
</svg>
