<svg xmlns="http://www.w3.org/2000/svg" xmlns:xlink="http://www.w3.org/1999/xlink" width="1440" height="1100" viewBox="0 0 1440 1100">
    <defs>
        <path id="a" d="M0 0h1440v1100H0z"/>
        <rect id="c" width="47.991" height="36" rx="2.4"/>
        <path id="e" d="M70.688 15.438l12.525 10.607c3.01 57.998 4.616 92.516 4.815 103.555.498 27.622-11.177 114.486-17.34 159.153C54.55 405.7 47.2 420.495 32.217 529.24c-.731 5.304-11.283 6.673-31.654 4.107 32.77-137.443 54.73-243.749 65.877-318.915 6.968-46.986 11.124-83.94 8.294-139.792-.655-12.93-2.004-32.664-4.046-59.202z"/>
        <path id="f" d="M110.127 8.4l9.331-7.712c2.339 21.992 4.027 37.965 5.066 47.918 2.733 26.18 4.73 51.75 4.576 76.91-.056 9.176 1.167 39.156-9.642 86.032C99.946 296.17 55.268 443.855 24.595 546c-1.036 3.45-9.034 3.05-23.995-1.2 57.355-161.504 93.107-271.014 107.257-328.531 10.682-43.42 12.384-93.592 7.801-150.43-.992-12.302-2.836-31.448-5.531-57.439z"/>
        <path id="h" d="M357.824 147.168c-11.75 3.887-20.229 14.96-20.229 28.013 0 13.054 8.479 24.127 20.229 28.014a29.472 29.472 0 0 1-9.272 1.486c-16.292 0-29.5-13.207-29.5-29.5 0-16.292 13.208-29.5 29.5-29.5 3.24 0 6.356.522 9.272 1.487z"/>
        <filter id="g" width="558.9%" height="383.1%" x="-215.4%" y="-138.1%" filterUnits="objectBoundingBox">
            <feMorphology in="SourceAlpha" operator="dilate" radius="2.5" result="shadowSpreadOuter1"/>
            <feOffset dy="2" in="shadowSpreadOuter1" result="shadowOffsetOuter1"/>
            <feGaussianBlur in="shadowOffsetOuter1" result="shadowBlurOuter1" stdDeviation="25"/>
            <feColorMatrix in="shadowBlurOuter1" values="0 0 0 0 1 0 0 0 0 1 0 0 0 0 1 0 0 0 0.733893795 0"/>
        </filter>
        <path id="j" d="M81.378 66.75l-1.47.773.28-1.637L79 64.727l1.643-.238.735-1.489.734 1.489 1.643.238-1.189 1.16.281 1.636z"/>
        <filter id="i" width="842.3%" height="875.8%" x="-371.1%" y="-392.7%" filterUnits="objectBoundingBox">
            <feMorphology in="SourceAlpha" operator="dilate" radius=".5" result="shadowSpreadOuter1"/>
            <feOffset in="shadowSpreadOuter1" result="shadowOffsetOuter1"/>
            <feGaussianBlur in="shadowOffsetOuter1" result="shadowBlurOuter1" stdDeviation="5"/>
            <feColorMatrix in="shadowBlurOuter1" values="0 0 0 0 1 0 0 0 0 1 0 0 0 0 1 0 0 0 0.5 0"/>
        </filter>
        <path id="l" d="M272 7.886l-3.09 1.625.59-3.441-2.5-2.437 3.455-.502L272 0l1.545 3.13 3.455.503-2.5 2.437.59 3.44z"/>
        <filter id="k" width="453%" height="468.9%" x="-176.5%" y="-186.7%" filterUnits="objectBoundingBox">
            <feMorphology in="SourceAlpha" operator="dilate" radius=".5" result="shadowSpreadOuter1"/>
            <feOffset in="shadowSpreadOuter1" result="shadowOffsetOuter1"/>
            <feGaussianBlur in="shadowOffsetOuter1" result="shadowBlurOuter1" stdDeviation="5"/>
            <feColorMatrix in="shadowBlurOuter1" values="0 0 0 0 1 0 0 0 0 1 0 0 0 0 1 0 0 0 0.5 0"/>
        </filter>
        <path id="n" d="M2.378 186.75l-1.47.773.28-1.637L0 184.727l1.643-.238.735-1.489.734 1.489 1.643.238-1.189 1.16.281 1.636z"/>
        <filter id="m" width="1143%" height="1187.3%" x="-521.5%" y="-553.2%" filterUnits="objectBoundingBox">
            <feMorphology in="SourceAlpha" operator="dilate" radius="1" result="shadowSpreadOuter1"/>
            <feOffset in="shadowSpreadOuter1" result="shadowOffsetOuter1"/>
            <feGaussianBlur in="shadowOffsetOuter1" result="shadowBlurOuter1" stdDeviation="6.5"/>
            <feColorMatrix in="shadowBlurOuter1" values="0 0 0 0 1 0 0 0 0 1 0 0 0 0 1 0 0 0 0.5 0"/>
        </filter>
        <path id="p" d="M224.378 121.75l-1.47.773.28-1.637-1.188-1.159 1.643-.238.735-1.489.734 1.489 1.643.238-1.189 1.16.281 1.636z"/>
        <filter id="o" width="1143%" height="1187.3%" x="-521.5%" y="-553.2%" filterUnits="objectBoundingBox">
            <feMorphology in="SourceAlpha" operator="dilate" radius="1" result="shadowSpreadOuter1"/>
            <feOffset in="shadowSpreadOuter1" result="shadowOffsetOuter1"/>
            <feGaussianBlur in="shadowOffsetOuter1" result="shadowBlurOuter1" stdDeviation="6.5"/>
            <feColorMatrix in="shadowBlurOuter1" values="0 0 0 0 1 0 0 0 0 1 0 0 0 0 1 0 0 0 0.5 0"/>
        </filter>
        <path id="r" d="M81.378 3.75l-1.47.773.28-1.637L79 1.727l1.643-.238L81.378 0l.734 1.489 1.643.238-1.189 1.16.281 1.636z"/>
        <filter id="q" width="842.3%" height="875.8%" x="-371.1%" y="-392.7%" filterUnits="objectBoundingBox">
            <feMorphology in="SourceAlpha" operator="dilate" radius=".5" result="shadowSpreadOuter1"/>
            <feOffset in="shadowSpreadOuter1" result="shadowOffsetOuter1"/>
            <feGaussianBlur in="shadowOffsetOuter1" result="shadowBlurOuter1" stdDeviation="5"/>
            <feColorMatrix in="shadowBlurOuter1" values="0 0 0 0 1 0 0 0 0 1 0 0 0 0 1 0 0 0 0.5 0"/>
        </filter>
        <path id="t" d="M342 154.886l-3.09 1.625.59-3.441-2.5-2.437 3.455-.502L342 147l1.545 3.13 3.455.503-2.5 2.437.59 3.44z"/>
        <filter id="s" width="453%" height="468.9%" x="-176.5%" y="-186.7%" filterUnits="objectBoundingBox">
            <feMorphology in="SourceAlpha" operator="dilate" radius=".5" result="shadowSpreadOuter1"/>
            <feOffset in="shadowSpreadOuter1" result="shadowOffsetOuter1"/>
            <feGaussianBlur in="shadowOffsetOuter1" result="shadowBlurOuter1" stdDeviation="5"/>
            <feColorMatrix in="shadowBlurOuter1" values="0 0 0 0 1 0 0 0 0 1 0 0 0 0 1 0 0 0 0.5 0"/>
        </filter>
        <path id="v" d="M2.378 123.75l-1.47.773.28-1.637L0 121.727l1.643-.238.735-1.489.734 1.489 1.643.238-1.189 1.16.281 1.636z"/>
        <filter id="u" width="1143%" height="1187.3%" x="-521.5%" y="-553.2%" filterUnits="objectBoundingBox">
            <feMorphology in="SourceAlpha" operator="dilate" radius="1" result="shadowSpreadOuter1"/>
            <feOffset in="shadowSpreadOuter1" result="shadowOffsetOuter1"/>
            <feGaussianBlur in="shadowOffsetOuter1" result="shadowBlurOuter1" stdDeviation="6.5"/>
            <feColorMatrix in="shadowBlurOuter1" values="0 0 0 0 1 0 0 0 0 1 0 0 0 0 1 0 0 0 0.5 0"/>
        </filter>
        <path id="x" d="M294.378 268.75l-1.47.773.28-1.637-1.188-1.159 1.643-.238.735-1.489.734 1.489 1.643.238-1.189 1.16.281 1.636z"/>
        <filter id="w" width="1143%" height="1187.3%" x="-521.5%" y="-553.2%" filterUnits="objectBoundingBox">
            <feMorphology in="SourceAlpha" operator="dilate" radius="1" result="shadowSpreadOuter1"/>
            <feOffset in="shadowSpreadOuter1" result="shadowOffsetOuter1"/>
            <feGaussianBlur in="shadowOffsetOuter1" result="shadowBlurOuter1" stdDeviation="6.5"/>
            <feColorMatrix in="shadowBlurOuter1" values="0 0 0 0 1 0 0 0 0 1 0 0 0 0 1 0 0 0 0.5 0"/>
        </filter>
        <path id="z" d="M272 7.886l-3.09 1.625.59-3.441-2.5-2.437 3.455-.502L272 0l1.545 3.13 3.455.503-2.5 2.437.59 3.44z"/>
        <filter id="y" width="453%" height="468.9%" x="-176.5%" y="-186.7%" filterUnits="objectBoundingBox">
            <feMorphology in="SourceAlpha" operator="dilate" radius=".5" result="shadowSpreadOuter1"/>
            <feOffset in="shadowSpreadOuter1" result="shadowOffsetOuter1"/>
            <feGaussianBlur in="shadowOffsetOuter1" result="shadowBlurOuter1" stdDeviation="5"/>
            <feColorMatrix in="shadowBlurOuter1" values="0 0 0 0 1 0 0 0 0 1 0 0 0 0 1 0 0 0 0.5 0"/>
        </filter>
        <path id="B" d="M2.378 186.75l-1.47.773.28-1.637L0 184.727l1.643-.238.735-1.489.734 1.489 1.643.238-1.189 1.16.281 1.636z"/>
        <filter id="A" width="1143%" height="1187.3%" x="-521.5%" y="-553.2%" filterUnits="objectBoundingBox">
            <feMorphology in="SourceAlpha" operator="dilate" radius="1" result="shadowSpreadOuter1"/>
            <feOffset in="shadowSpreadOuter1" result="shadowOffsetOuter1"/>
            <feGaussianBlur in="shadowOffsetOuter1" result="shadowBlurOuter1" stdDeviation="6.5"/>
            <feColorMatrix in="shadowBlurOuter1" values="0 0 0 0 1 0 0 0 0 1 0 0 0 0 1 0 0 0 0.5 0"/>
        </filter>
        <path id="D" d="M224.378 121.75l-1.47.773.28-1.637-1.188-1.159 1.643-.238.735-1.489.734 1.489 1.643.238-1.189 1.16.281 1.636z"/>
        <filter id="C" width="1143%" height="1187.3%" x="-521.5%" y="-553.2%" filterUnits="objectBoundingBox">
            <feMorphology in="SourceAlpha" operator="dilate" radius="1" result="shadowSpreadOuter1"/>
            <feOffset in="shadowSpreadOuter1" result="shadowOffsetOuter1"/>
            <feGaussianBlur in="shadowOffsetOuter1" result="shadowBlurOuter1" stdDeviation="6.5"/>
            <feColorMatrix in="shadowBlurOuter1" values="0 0 0 0 1 0 0 0 0 1 0 0 0 0 1 0 0 0 0.5 0"/>
        </filter>
        <radialGradient id="E" cx="13.738%" cy="16.937%" r="165.815%" fx="13.738%" fy="16.937%" gradientTransform="matrix(.60128 .61679 -.47116 .78713 .135 -.049)">
            <stop offset="0%" stop-opacity="0"/>
            <stop offset="100%" stop-opacity=".5"/>
        </radialGradient>
        <rect id="F" width="42.494" height="30" rx="2.4"/>
        <path id="H" d="M5.059 21c2.023 0 5.059-3.925 5.059-10S7.082 1 5.058 1C3.036 1 0 4.925 0 11s3.035 10 5.059 10z"/>
        <linearGradient id="L" x1="50%" x2="50%" y1="0%" y2="100%">
            <stop offset="0%" stop-color="#FFF"/>
            <stop offset="100%" stop-color="#F0F0F0"/>
        </linearGradient>
        <path id="K" d="M5.059 14c-.559 0-1.012-1.343-1.012-3S4.5 8 5.06 8c.559 0 1.012 1.343 1.012 3s-.453 3-1.012 3zm0-6C4.5 8 4.047 6.21 4.047 4S4.5 0 5.06 0C5.618 0 6.07 1.79 6.07 4s-.453 4-1.012 4zm0 14c-.559 0-1.012-1.79-1.012-4s.453-4 1.012-4c.559 0 1.012 1.79 1.012 4s-.453 4-1.012 4z"/>
        <filter id="J" width="149.4%" height="108.6%" x="-24.7%" y="-2.3%" filterUnits="objectBoundingBox">
            <feOffset dy="1" in="SourceAlpha" result="shadowOffsetOuter1"/>
            <feColorMatrix in="shadowOffsetOuter1" values="0 0 0 0 0 0 0 0 0 0 0 0 0 0 0 0 0 0 0.06 0"/>
        </filter>
        <linearGradient id="M" x1="0%" y1="50%" y2="50%">
            <stop offset="0%" stop-color="#F34741"/>
            <stop offset="100%" stop-color="#F29B70"/>
        </linearGradient>
        <linearGradient id="N" x1="0%" y1="50%" y2="50%">
            <stop offset="0%" stop-color="#00102A"/>
            <stop offset="100%" stop-color="#0A3DA6"/>
        </linearGradient>
        <linearGradient id="O" x1="100%" x2="0%" y1="50%" y2="50%">
            <stop offset="0%" stop-color="#62557A"/>
            <stop offset="100%" stop-color="#1C235E"/>
        </linearGradient>
        <linearGradient id="P" x1="100%" x2="0%" y1="50%" y2="50%">
            <stop offset="0%" stop-color="#F29B70"/>
            <stop offset="100%" stop-color="#F34741"/>
        </linearGradient>
    </defs>
    <g fill="none" fill-rule="evenodd">
        <mask id="b" fill="#fff">
            <use xlink:href="#a"/>
        </mask>
        <use fill="#D8D8D8" xlink:href="#a"/>
        <g mask="url(#b)">
            <path fill="#2C2D50" d="M0 0h1440v1100H0z"/>
            <g transform="translate(253.924 510.8)">
                <mask id="d" fill="#fff">
                    <use xlink:href="#c"/>
                </mask>
                <rect width="47.391" height="35.4" x=".3" y=".3" fill="#F5F5F5" rx="2.4"/>
                <path fill="#189B62" d="M31.604 0h16.387v36H31.604zM0 0h16.387v36H0z" mask="url(#d)"/>
            </g>
            <path fill="#000" fill-rule="nonzero" d="M252.724 506h2.16v139.92h-2.16z"/>
            <g fill-rule="nonzero" stroke-linecap="square" stroke-width="1.2">
                <g stroke="#9A131A">
                    <path d="M239.777 742.4l-137.624 341.4M243.376 707.6L22.97 1162.4M243.376 682.4l-287.594 486M243.376 664.4l-335.585 499.2M243.376 640.4L-135.4 1178.6M243.376 616.4l-345.183 481.8"/>
                </g>
                <g stroke="#E3100F">
                    <path d="M267.372 730.4L94.955 1085M267.372 705.2l-287.595 486M267.372 687.2l-335.585 499.2M267.372 663.2l-378.777 538.2M267.372 639.2L-77.811 1121"/>
                </g>
            </g>
            <g fill-rule="nonzero">
                <g transform="matrix(-1 0 0 1 343.73 579.2)">
                    <use fill="#F36351" xlink:href="#e"/>
                    <use fill="#FDAC86" xlink:href="#e"/>
                </g>
                <path fill="#F36351" d="M292.432 580.024l-19.468 14.614c-3.07 30.157-4.703 50.755-4.902 61.794-.498 27.622-.43 56.747.75 81.896.42 8.963 5.633 68.542 16.442 115.418 19.512 84.621 31.924 151.503 56.03 255.52.935 4.032 9.137 5.25 24.608 3.656-36.933-137.598-61.98-238.64-75.14-303.128-9.097-44.578-14.651-96.607-7.03-153.362 1.45-10.785 4.352-36.255 8.71-76.408z"/>
                <g fill="#71111B">
                    <path d="M249.182 650.348l19.51 6.308-10.983 4.699-10.739-1.95zM249.182 688.748l19.51 6.308-12.578 4.584-8.909-2.052zM242.543 725.672l26.15 6.584-11.567 4.523-12.752-2.216zM242.543 762.872l29.253 7.456-10.677 4.472-19.674-2.742z"/>
                </g>
                <g fill="#F36351">
                    <path d="M239.877 637.071l38.991 6.877-2.5 14.18-38.99-6.876zM239.877 675.471l38.991 6.877-2.5 14.18-38.99-6.876zM238.678 712.671l38.99 6.877-2.5 14.18-38.99-6.876zM238.678 749.871l38.99 6.877-2.5 14.18-38.99-6.876z"/>
                </g>
                <g stroke-linecap="square" stroke-width="1.2">
                    <g stroke="#9A131A">
                        <path d="M277.668 760.4l125.626 286.2M266.736 726.8l230.14 327M269.189 702.8l316.47 359.4M270.396 684.8l375.25 371.4M265.537 662l524.682 441.527M274.07 640.4L884.4 1106"/>
                    </g>
                    <g stroke="#E3100F">
                        <path d="M240.052 745.288l115.13 301.314M242.893 718.736l225.187 335.489M244.262 688.775l278 365.025M242.857 668.402L609.652 1062.2M243.864 645.022l506.118 469.458M241.76 620.468l601.846 494.421"/>
                    </g>
                </g>
                <g>
                    <g stroke="#E3100F" stroke-linecap="square" stroke-width="1.2">
                        <path d="M1.373 1074.2v12M13.37 1070.6v12M25.368 1067v12M37.366 1063.4v12M49.364 1059.8v12M1.373 1074.2v12M13.37 1070.6v12M25.368 1067v12M37.366 1063.4v12M49.364 1059.8v12M61.361 1057.4v12M73.359 1053.8v12M85.357 1051.4v12M133.347 1040.6v12M145.345 1038.2v12M157.343 1035.8v12M169.34 1033.4v12M97.354 1047.8v12M109.352 1045.4v12M121.35 1043v12M193.335 1031v12M217.33 1027.4v12M229.328 1026.2v12M241.326 1026.2v12M253.324 1023.8v12M265.321 1023.8v12M277.319 1022.6v12M289.317 1021.4v12M301.314 1021.4v12M313.312 1021.4v12M181.338 1032.2v12M205.333 1028.6v12M229.328 1026.2v12M241.326 1025v12M325.31 1020.2v12M337.307 1020.2v12M349.305 1020.2v12M397.296 1020.2v12M409.293 1021.4v12M421.29 1021.4v12M433.288 1021.4v12M361.303 1020.2v12M373.3 1020.2v12M385.298 1020.2v12M469.281 1022.6v12M481.28 1023.8v12M493.277 1023.8v12M505.274 1025v12M445.286 1022.6v12M457.284 1022.6v12M541.267 1027.4v12M553.265 1028.6v12M565.263 1028.6v12M577.26 1029.8v12M517.272 1026.2v12M529.27 1026.2v12M601.256 1032.2v12M613.253 1032.2v12M625.25 1033.4v12M637.249 1034.6v12M589.258 1031v12M661.244 1037v12M673.241 1038.2v12M685.24 1039.4v12M697.237 1039.4v12M649.246 1035.8v12M709.234 1041.8v12M733.23 1044.2v12M745.227 1045.4v12M757.225 1046.6v12M769.223 1047.8v12M781.22 1049v12M721.232 1043v12"/>
                    </g>
                    <path fill="#3D1F21" d="M-33.1 1098.23c178.5-34.751 314.207-52.512 407.122-53.283 92.916-.77 231.648 2.78 416.197 10.653l-55.002 6.096c12.575 6.881 3.197 10.25-28.132 10.104-78.312-.363-289.955-10.454-357.78-9-108.527 2.327-211.307 15.727-308.34 40.2l-74.065-4.77z"/>
                    <path fill="#D0443F" d="M-54.032 1099.14c52.585-17.49 90.874-28.917 114.868-34.281 135.388-30.266 239.784-38.503 313.186-39.112 92.916-.77 234.818 9.612 425.708 31.149l-61.015.707c27.672 4.983 25.844 7.401-5.485 7.256-78.312-.363-251.95-11.563-363.864-11.563-109.487 0-225.153 15.368-346.997 46.104l-76.401-.26z"/>
                    <path stroke="#E3100F" stroke-linecap="square" stroke-width="1.2" d="M-84.184 1109.865c-12.393 3.168-17.921 4.423-16.583 3.763 39.471-19.463 106.209-41.795 130.78-48.706 114.553-32.224 182.877-39.244 260.826-44 77.95-4.755 217.622 1.474 385.188 16.446 40.06 3.58 106.209 11.153 198.445 22.722"/>
                </g>
                <g>
                    <g transform="translate(108.752 560)">
                        <use fill="#EA1B1D" xlink:href="#f"/>
                        <use fill="#FDAC86" xlink:href="#f"/>
                    </g>
                    <path fill="#F36351" d="M228.205 560.693l19.66 25.373c.75 22.438 1.224 39.176 1.423 50.215.498 27.622.498 56.952-.682 82.1-.42 8.963-5.557 61.08-16.366 107.957-19.513 84.62-40.786 178.046-64.891 282.062-.935 4.032-12.269 3.232-34.002-2.4 47.519-159.592 78.353-268.147 92.503-325.664 10.682-43.42 14.513-86.22 9.93-143.058-.992-12.302-3.517-37.83-7.575-76.585z"/>
                </g>
            </g>
            <g fill="#FFF" fill-rule="nonzero" opacity=".152">
                <path d="M1130.244 278.575c23.218-2.793 42.647.75 58.285 10.626 16.199-46.63 51.007-58.118 104.424-34.463.56.248-1.49-25.292 33.273-38.647 49.41-18.982 81.08 6.402 95.01 76.152L1440 303.66 1087 307c5.611-16.157 20.026-25.632 43.244-28.425zM450.2 462.494c-34.828-4.189-45.839 10.626-58.286 10.626-12.447 0-29.452-76.011-104.424-34.463-.464.257 1.49-25.292-33.273-38.647-74.114-28.473-110.962 53.252-123.045 57.127-12.084 3.874-13.622-14.505-46.227-2.851-21.737 7.769-34.719 18.866-38.945 33.292l447.444 3.341c235.73-1.438 353.466-2.456 353.205-3.055-.138-.319-66.077-2.555-81.505-2.996-53.485-1.528-279.427-1.692-279.787-2.328-6.95-12.27-15.204-17.646-35.158-20.046z" opacity=".521"/>
            </g>
            <g transform="rotate(-38 270.438 372.668)">
                <use fill="#000" filter="url(#g)" xlink:href="#h"/>
                <use fill="#FFF" xlink:href="#h"/>
            </g>
            <g>
                <g transform="translate(33 91)">
                    <use fill="#000" filter="url(#i)" xlink:href="#j"/>
                    <use fill="#FFF" xlink:href="#j"/>
                </g>
                <g transform="translate(33 91)">
                    <use fill="#000" filter="url(#k)" xlink:href="#l"/>
                    <use fill="#FFF" xlink:href="#l"/>
                </g>
                <g transform="translate(33 91)">
                    <use fill="#000" filter="url(#m)" xlink:href="#n"/>
                    <use fill="#FFF" xlink:href="#n"/>
                </g>
                <g transform="translate(33 91)">
                    <use fill="#000" filter="url(#o)" xlink:href="#p"/>
                    <use fill="#FFF" xlink:href="#p"/>
                </g>
                <g>
                    <g transform="matrix(1 0 0 -1 483 286)">
                        <use fill="#000" filter="url(#q)" xlink:href="#r"/>
                        <use fill="#FFF" xlink:href="#r"/>
                    </g>
                    <g transform="matrix(1 0 0 -1 483 286)">
                        <use fill="#000" filter="url(#s)" xlink:href="#t"/>
                        <use fill="#FFF" xlink:href="#t"/>
                    </g>
                    <g transform="matrix(1 0 0 -1 483 286)">
                        <use fill="#000" filter="url(#u)" xlink:href="#v"/>
                        <use fill="#FFF" xlink:href="#v"/>
                    </g>
                    <g transform="matrix(1 0 0 -1 483 286)">
                        <use fill="#000" filter="url(#w)" xlink:href="#x"/>
                        <use fill="#FFF" xlink:href="#x"/>
                    </g>
                </g>
                <g>
                    <g transform="matrix(0 -1 -1 0 1245.5 393.5)">
                        <use fill="#000" filter="url(#y)" xlink:href="#z"/>
                        <use fill="#FFF" xlink:href="#z"/>
                    </g>
                    <g transform="matrix(0 -1 -1 0 1245.5 393.5)">
                        <use fill="#000" filter="url(#A)" xlink:href="#B"/>
                        <use fill="#FFF" xlink:href="#B"/>
                    </g>
                    <g transform="matrix(0 -1 -1 0 1245.5 393.5)">
                        <use fill="#000" filter="url(#C)" xlink:href="#D"/>
                        <use fill="#FFF" xlink:href="#D"/>
                    </g>
                </g>
            </g>
            <path fill="url(#E)" fill-rule="nonzero" d="M136 0h1440v1100H136z" transform="translate(-136)"/>
            <g>
                <g fill-rule="nonzero">
                    <path fill="#CB926A" d="M1385.015 738.497l480.532 464.021-1122.568-42.8z"/>
                    <path fill="#AC7751" d="M1385.004 738.498l578.515 333.986c-222.332 53.527-391.667 87.365-508.004 101.516-116.338 14.15-262.724 18.714-439.159 13.692l368.648-449.194z"/>
                </g>
                <g transform="translate(1208.4 416)">
                    <mask id="G" fill="#fff">
                        <use xlink:href="#F"/>
                    </mask>
                    <use fill="#FFF" xlink:href="#F"/>
                    <path fill="#262626" d="M0 0h42.494v8H0z" mask="url(#G)"/>
                    <path fill="#018301" d="M0 22h42.494v8H0z" mask="url(#G)"/>
                    <path fill="#FFF" d="M0 8h42.494v14H0z" mask="url(#G)"/>
                    <path fill="#DC0808" d="M0 10h42.494v10H0z" mask="url(#G)"/>
                    <g mask="url(#G)">
                        <g transform="translate(16.188 4)">
                            <mask id="I" fill="#fff">
                                <use xlink:href="#H"/>
                            </mask>
                            <use fill="#BC0000" xlink:href="#H"/>
                            <ellipse cx="-3.035" cy="11" fill="#262626" mask="url(#I)" rx="5.059" ry="11"/>
                            <ellipse cx="13.153" cy="11" fill="#262626" mask="url(#I)" rx="5.059" ry="11"/>
                            <g mask="url(#I)">
                                <use fill="#000" filter="url(#J)" xlink:href="#K"/>
                                <use fill="url(#L)" xlink:href="#K"/>
                            </g>
                        </g>
                    </g>
                </g>
                <path fill="#000" fill-rule="nonzero" d="M1207.2 413h1.8v78.6h-1.8z"/>
                <g fill-rule="nonzero">
                    <path fill="url(#M)" d="M41.505 2.796C64.385 1.311 81.149.568 91.8.568c10.65 0 27.416.743 50.295 2.228a2.4 2.4 0 0 1 2.122 3.154L139.2 21H44.4L39.383 5.95a2.4 2.4 0 0 1 2.122-3.154z" transform="matrix(-1 0 0 1 1299.6 487.6)"/>
                    <path fill="#FFF" d="M1166.4 496h8.4v8.4h-8.4zM1185 496h8.4v8.4h-8.4zM1203.6 496h8.4v8.4h-8.4zM1222.2 496h8.4v8.4h-8.4zM1240.8 496h8.4v8.4h-8.4z"/>
                    <path fill="url(#N)" d="M131.85 17.845l44.982 22.428c-12.277 1.068-20.744 1.755-25.401 2.062-19.914 1.313-40.017 2.66-59.931 2.66-19.12 0-38.401-1.45-57.52-2.66-5.188-.329-16.36-1.016-33.52-2.062l50.58-22.367 8.63-.007V13.8h62.243v4.052l9.937-.007z" transform="matrix(1 0 0 -1 1116 546.395)"/>
                </g>
                <g fill-rule="nonzero">
                    <path fill="url(#O)" d="M5.4 0h121.2v439.2H5.4z" transform="translate(1140.6 532.6)"/>
                    <path fill="url(#P)" d="M0 0h133.2v8.4H0zM0 14.4h133.2v8.4H0zM0 28.8h133.2v8.4H0zM0 43.2h133.2v8.4H0zM0 57.6h133.2V66H0zM0 72h133.2v8.4H0zM0 86.4h133.2v8.4H0zM0 100.8h133.2v8.4H0zM0 115.2h133.2v8.4H0zM0 129.6h133.2v8.4H0zM0 144h133.2v8.4H0zM0 158.4h133.2v8.4H0zM0 172.8h133.2v8.4H0zM0 187.2h133.2v8.4H0zM0 201.6h133.2v8.4H0zM0 216h133.2v8.4H0zM0 230.4h133.2v8.4H0zM0 244.8h133.2v8.4H0zM0 259.2h133.2v8.4H0zM0 273.6h133.2v8.4H0zM0 288h133.2v8.4H0zM0 302.4h133.2v8.4H0zM0 316.8h133.2v8.4H0zM0 331.2h133.2v8.4H0zM0 345.6h133.2v8.4H0zM0 360h133.2v8.4H0zM0 374.4h133.2v8.4H0zM0 388.8h133.2v8.4H0zM0 403.2h133.2v8.4H0zM0 417.6h133.2v8.4H0zM0 432h133.2v8.4H0z" transform="matrix(-1 0 0 1 1273.8 532.6)"/>
                </g>
                <g>
                    <path fill="#37BA9B" d="M1275.85 950.907c1.557.027 4.604-1.703 5.834-13.907 2.696-26.756 0-46.833 3.434-68.595 1.083-6.864-1.518-23.922-7.804-51.175-5.263 11.541-8.456 21.12-9.58 28.736-.79 5.363 2.06 19.56 0 30.48-3.03 16.083.819 28.916 2.434 51.875 1.712 24.323 3.126 22.541 5.683 22.586z"/>
                    <path fill="#18908E" d="M1279.484 937c3.818-22.351 3.437-34.156 4.354-44.3 1.924-21.278 1.924-24.498 1.924-32.39 0-10.618-2.816-24.978-8.448-43.08 1.208 21.428 1.208 41.542 0 60.344-1.615 25.145-4.314 22.114-4.314 49.011 0 6.754.117 11.887.32 15.709.106 1.994-.895 7.637-5.18 9.148-1.74.614 10.99 1.044 11.344 1.672.893 1.58 3.55-1.893 2.566-2.763-2.962-2.615-2.962-11.031-2.566-13.351z"/>
                    <path fill="#37BA9B" d="M1269.265 951.931c.674-.083 1.789-1.799.92-12.52-1.908-23.506-5.372-40.822-6.388-60.024-.32-6.057-3.398-20.748-9.232-44.072-.944 10.42-1.222 18.987-.832 25.702.274 4.728 3.13 16.908 3.495 26.567.539 14.226 3.67 25.148 6.998 45.05 3.528 21.083 3.933 19.433 5.04 19.297z"/>
                    <path fill="#18908E" d="M1269.062 939.174c-.928-19.667-2.438-29.891-3.206-38.762-1.612-18.607-1.98-21.403-2.88-28.256-1.213-9.22-4.05-21.5-8.514-36.837 2.96 18.525 5.258 35.991 6.89 52.4 2.184 21.944.69 19.494 3.761 42.85.772 5.865 1.408 10.315 1.93 13.62.273 1.724.492 6.692-1.16 8.294-.67.65 4.796.163 5.019.684.56 1.311 1.295-1.884.776-2.572-1.559-2.071-2.52-9.38-2.616-11.42z"/>
                    <path fill="#37BA9B" d="M1264.486 952c.66-.164 1.748-1.233.895-6.487-1.87-11.518-5.261-19.63-6.26-29.137-.314-3-3.327-9.855-9.036-20.569-.92 5.432-1.19 9.807-.807 13.125.27 2.337 3.065 7.966 3.424 12.775.53 7.083 3.593 12.028 6.853 21.468 3.454 10.001 3.85 9.095 4.931 8.825z"/>
                    <path fill="#18908E" d="M1264.275 945.595c-.912-9.758-5.302-12.403-6.055-16.741-1.58-9.1-.737-9.204-1.62-12.5-1.188-4.433-3.396-11.276-6.624-20.528.773 11.346 1.96 21.012 3.56 28.998 2.14 10.68 2.5 6.161 5.509 17.393.755 2.82 2.746 4.703 3.258 6.276.268.821.482 3.29-1.131 4.398-.655.45 4.688-.79 4.906-.567.548.56 1.265-1.186.758-1.44-1.525-.762-2.466-4.276-2.56-5.289z"/>
                    <path fill="#37BA9B" d="M1259.65 952.039c.626-.266 1.755-1.77-3.831-13.363-2.024-4.2-4.263-7.706-6.717-10.518-.725 5.457-.995 8.956-.81 10.497.13 1.085 2.321 5.406 4.88 9.183 2.71 4.002 5.452 4.636 6.479 4.2z"/>
                    <path fill="#18908E" d="M1259.784 948.922c-.345-4.59-5.004-10.987-5.659-12.376-.88-1.87-2.59-4.652-5.129-8.344.132 5.417.74 9.885 1.821 13.403 1.447 4.705 2.019 2.361 4.249 7.098.56 1.19 3.002 3.706 1.434 4.706-.636.406 5.092-.661 5.284-.611.484.125 6.355-1.054 5.894-1.039-1.387.047-7.858-2.361-7.894-2.837z"/>
                    <path fill="#37BA9B" d="M1282.928 951.685c1.23.217-.138-2.053 2.204-10.64 5.133-18.829 4.714-26.848 9.87-42.005 1.627-4.78 2.707-19.156 3.24-43.128-5.459 7.602-9.06 14.06-10.802 19.375-1.227 3.742.445 25.188-1.207 34.368-2.273 12.635-4.735 12.742-5.247 27.326-.419 11.92-.075 14.349 1.942 14.704z"/>
                    <path fill="#18908E" d="M1286.82 936.65c6.898-27.573 8.754-37.341 12.607-48.361 1.589-4.543 1.164-15.6-1.273-33.168-1.496 16.005-3.876 30.668-7.14 43.99-4.364 17.817-6.761 15.19-9.684 34.534-4.838 32.02 3.287 11.81 5.49 3.006z"/>
                    <g>
                        <path fill="#37BA9B" d="M1294.33 951.785c1.432.637-1.228-3.716 1.297-6.87 5.535-6.915 5.887-8.33 11.532-13.452 1.78-1.616 2.708-8.126 2.783-19.531-2.18 3.168-4.223 5.664-6.126 7.489-1.34 1.284-3.262 8.476-4.972 12.216-2.354 5.148-6.84 5.312-7.103 12.169-.216 5.605.238 6.932 2.59 7.979z"/>
                        <path fill="#18908E" d="M1295.433 947.626c1.937-5.337 9.04-13.945 12.47-17.457 1.56-1.598 2.125-7.745 1.695-18.44-.784 7.147-2.814 13.293-6.091 18.44-4.383 6.882-6.567 4.862-9.635 12.935-2.974 7.824-1.954 9.577 1.561 9.577 1.2 0-.707-3.105 0-5.055z"/>
                    </g>
                    <g>
                        <path fill="#37BA9B" d="M1286.685 952.495c0-.838 1.728.123 5.137-8.644 7.473-19.222 7.419-27.782 14.708-43.108 2.298-4.834 4.476-19.917 6.532-45.25-4.994 10.483-8.728 18.416-11.203 23.8-1.742 3.79-4.256 21.95-6.843 31.445-3.559 13.067-6.625 12.828-8.109 28.212-1.213 12.575-.222 15.415-.222 13.545z"/>
                        <path fill="#18908E" d="M1294.682 939.253c9.631-28.198 12.457-38.233 17.4-49.416 2.039-4.61 2.222-16.034.55-34.274-2.1 16.299-5.441 31.262-10.025 44.891-6.131 18.227-8.263 15.3-13.106 35.232-1.601 6.59-8.844 13.529-12.36 14.944-1.495.602 10.7 3.472 13.644.117 1.155-1.316 2.054-2.062 2.463-3.974.566-2.648.743-5.498 1.434-7.52z"/>
                    </g>
                    <path fill="#11767C" d="M1272.52 954.03c1.676-.206 2.754-9.385 1.732-10.977-1.704-2.656-.542-9.323-1.739-14.164-.675-2.732-2.172-6.564-4.49-11.495-.972 3.238-1.263 6.437-.875 9.598.666 5.423 1.32 7.888 2.16 10.893 1.217 4.365 1.537 16.35 3.213 16.144z"/>
                    <path fill="#11767C" d="M1276.237 953.85c4.83 0-.874-.42 0-3.418 1.128-3.873 3.501-9.522 3.31-11.884-.107-1.333-.45-3.413-1.027-6.24-1.266 3.63-2.027 6.171-2.283 7.624-.44 2.492-.827 4.822-1.5 7.215-1.045 3.725-3.331 6.704 1.5 6.704zM1281.703 953.428c2.117.336 1.223-1.068 2.355-3.163 1.463-2.705 2.235-5.942 2.152-7.805-.046-1.052-.313-2.735-.8-5.051-1.606.738-2.677 2.799-3.213 6.183-.417 2.636-2.612 9.5-.494 9.836z"/>
                    <g>
                        <path fill="#544865" d="M988.582 933l2.042 7.798v22.323c5.584-12.523 8.376-18.566 8.376-18.13 0 .435-2.792 7.574-8.376 21.417-.3 8.176-.048 12.954.756 14.335.555.954 7.62-7.57 7.62-6.408 0 .567-7.487 8.316-7.62 9.052-.486 2.69-.738 29.228-.756 79.613h-2.042v-87.697c-10.388-5.908-15.582-9.051-15.582-9.43 0-.268 7.848 4.814 13 6.922 1.442.59 2.303.297 2.582-.879v-14.564c-3.626-11.28-5.438-17.175-5.438-17.687 0-.512 1.812 4.207 5.438 14.156V933z"/>
                        <path fill="#43C59E" d="M999.166 974.75c.462 1.601.779 2.915 5.413 1.594 3.089-.88 6.878-3.006 11.368-6.378-5.604-.493-9.951-.3-13.04.581-4.634 1.321-4.203 2.603-3.74 4.203z"/>
                        <path fill="#34A885" d="M991.4 925.59c1.32 1.026 2.352 1.904 5.32-1.873 1.979-2.518 3.788-6.452 5.427-11.803-4.826 2.876-8.228 5.573-10.207 8.09-2.967 3.777-1.86 4.562-.54 5.587z"/>
                        <path fill="#43C59E" d="M985.286 943.275c1.53-.677 2.795-1.172.834-5.55-1.307-2.92-3.952-6.354-7.934-10.305.288 5.586 1.086 9.839 2.393 12.758 1.96 4.378 3.177 3.775 4.707 3.097zM996.744 941.935c1.53-.677 2.795-1.172.834-5.55-1.307-2.92-3.952-6.354-7.935-10.305.289 5.586 1.086 9.839 2.394 12.757 1.96 4.379 3.177 3.776 4.707 3.098z"/>
                        <path fill="#43C59E" d="M990.004 932.554c1.53-.677 2.795-1.172.834-5.55-1.307-2.92-3.952-6.354-7.934-10.305.288 5.586 1.086 9.839 2.393 12.757 1.96 4.379 3.177 3.776 4.707 3.098z"/>
                        <path fill="#43C59E" d="M990.56 926.62c.874.48 1.564.902 2.957-1.596.928-1.666 1.624-4.149 2.087-7.45-2.57 2.14-4.32 4.042-5.249 5.707-1.392 2.498-.668 2.857.205 3.339z"/>
                        <path fill="#19A184" d="M996.6 959.421c.46 1.601.778 2.915 5.412 1.594 3.089-.88 7.11-2.02 12.061-3.417-4.951-1.965-8.972-2.507-12.061-1.626-4.634 1.321-5.874 1.849-5.413 3.45zM1001.991 975.503c.462 1.6.779 2.915 5.413 1.594 3.089-.88 7.11-2.02 12.061-3.417-4.952-1.965-8.972-2.507-12.061-1.626-4.634 1.321-5.875 1.848-5.413 3.45zM1002.889 945.727c.912 1.397 1.602 2.561 5.645-.049 2.695-1.74 6.205-3.998 10.53-6.774-5.314-.44-9.318.211-12.014 1.951-4.042 2.61-5.074 3.475-4.161 4.872z"/>
                        <path fill="#34A885" d="M990.051 930.419c.239-.617.492-1.095-4.414-2.967-3.27-1.248-7.352-.9-12.244 1.042 4.317-.453 8.11-.056 11.382 1.193 4.906 1.872 5.038 1.349 5.276.732z"/>
                        <path fill="#34A885" d="M990.519 929.816c.816-.527 1.513-.9-1.349-5.282-1.908-2.922-6.112-4.576-12.611-4.964 4.528 1.66 7.746 3.951 9.655 6.872 2.862 4.382 3.488 3.9 4.305 3.374z"/>
                        <path fill="#43C59E" d="M989.111 925.97c.983-.172 1.786-.277 1.287-3.09-.332-1.875-1.364-4.24-3.093-7.096-.644 3.272-.8 5.845-.467 7.72.5 2.813 1.29 2.638 2.273 2.466z"/>
                        <path fill="#19A184" d="M997.406 922.76c.386.59.677 1.081 2.385-.021 1.138-.735 2.62-1.69 4.448-2.862-2.245-.185-3.936.09-5.075.824-1.708 1.103-2.143 1.468-1.758 2.058z"/>
                        <path fill="#43C59E" d="M999.532 955.468c.81 3.231 4.028.871 15.892-2.07 7.909-1.96 14.194.79 18.856 8.252-5.2-13.587-11.756-19.4-19.665-17.44-11.863 2.941-15.893 8.026-15.083 11.258z"/>
                        <path fill="#19A184" d="M1000.549 956.258c-1.316 1.872 4.726.477 16.59-2.464 7.908-1.96 13.339.258 16.29 6.656-5.093-6.732-11.595-9.118-19.504-7.157-11.863 2.94-12.06 1.093-13.376 2.965z"/>
                        <path fill="#3BBD9E" d="M994.083 955.99c2.71 2.106 3.9-1.936 11.917-12.137 5.344-6.801 12.307-8.687 20.888-5.66-12.89-7.675-22.008-8.112-27.352-1.311-8.017 10.201-8.165 17.002-5.453 19.108z"/>
                        <path fill="#19A184" d="M995.464 956.063c.085 2.394 4.232-2.718 12.249-12.919 5.344-6.8 11.26-8.559 17.749-5.275-8.482-2.148-15.394.178-20.738 6.979-8.017 10.2-9.346 8.822-9.26 11.215z"/>
                        <path fill="#3BBD9E" d="M989.8 982.572c-2.179 1.691-3.135-1.557-9.577-9.754-4.294-5.465-9.888-6.982-16.782-4.55 10.355-6.165 17.68-6.515 21.974-1.05 6.442 8.197 6.562 13.662 4.384 15.354z"/>
                        <path fill="#19A184" d="M988.689 982.63c-.068 1.924-3.4-2.184-9.842-10.38-4.295-5.466-9.048-6.88-14.26-4.242 6.813-1.725 12.367.145 16.661 5.61 6.442 8.197 7.51 7.09 7.441 9.013z"/>
                        <path fill="#43C59E" d="M989.36 936.737c1.745.962 2.456-1.463 6.119-8.032 2.441-4.38 6.126-6.088 11.054-5.127-8.087-3.235-13.352-2.662-15.793 1.717-3.663 6.569-3.127 10.48-1.38 11.442z"/>
                        <path fill="#19A184" fill-opacity=".5" d="M990.354 936.762c1.266-.355 1.994-2.971 5.643-8.616 2.433-3.764 5.84-5.337 10.218-4.72-6.685-1.767-11.248-.461-13.69 3.918-2.164 3.882-2.91 6.742-3.647 8.097-.511.938.196 1.68 1.476 1.321z"/>
                        <path fill="#43C59E" d="M996.736 975.477c.911 1.508 2.006 1.33 4.378-.096 2.12-1.274 5.264-3.546 10.211-6.502 6.987-4.174 14.658-7.024 23.01-8.551-10.67-4.174-19.498-4.174-26.485 0-10.48 6.26-12.839 12.294-11.114 15.15z"/>
                        <path fill="#19A184" d="M997.941 975.937c-.708 2.173 4.66-.917 15.14-7.178 6.987-4.174 13.755-7.118 20.304-8.831-8.696 2.016-16.537 5.112-23.524 9.286-10.48 6.26-11.212 4.55-11.92 6.723z"/>
                        <path fill="#43C59E" d="M989.412 979.746c.448.74.985.653 2.15-.047 1.043-.627 2.587-1.743 5.017-3.194 3.433-2.05 7.2-3.451 11.304-4.201-5.242-2.05-9.579-2.05-13.01 0-5.15 3.075-6.308 6.04-5.46 7.442z"/>
                        <path fill="#19A184" d="M990.004 979.972c-.347 1.067 2.29-.45 7.438-3.527 3.432-2.05 6.757-3.496 9.974-4.338-4.272.99-8.124 2.511-11.556 4.562-5.149 3.076-5.508 2.236-5.856 3.303z"/>
                        <path fill="#43C59E" d="M997.612 938.75c.844.755 1.48.444 2.662-.868 1.057-1.173 2.55-3.145 5.018-5.87 3.486-3.85 7.641-7.013 12.466-9.491-7.327-.589-12.733 1.042-16.219 4.89-5.228 5.773-5.526 9.907-3.927 11.339z"/>
                        <path fill="#19A184" d="M998.537 938.497c.007 1.49 2.713-1.399 7.95-7.18 3.49-3.855 7.098-6.899 10.824-9.13-5 2.8-9.246 6.129-12.736 9.983-5.237 5.782-6.045 4.837-6.038 6.327z"/>
                        <path fill="#43C59E" d="M990.488 961.406c-.91 1.507-2.005 1.329-4.377-.096-2.121-1.275-5.264-3.547-10.212-6.502-6.987-4.174-14.657-7.025-23.01-8.552 10.67-4.174 19.499-4.174 26.485 0 10.48 6.261 12.84 12.295 11.114 15.15z"/>
                        <path fill="#19A184" d="M989.284 961.866c.707 2.173-4.66-.918-15.14-7.179-6.987-4.173-13.755-7.117-20.304-8.83 8.695 2.016 16.537 5.111 23.524 9.285 10.48 6.26 11.212 4.551 11.92 6.724z"/>
                        <path fill="#43C59E" d="M995.912 978.192c.14 1.585 2.08.968 8.113.443 4.022-.35 6.816 1.319 8.383 5.006-1.463-6.794-4.206-10.017-8.228-9.667-6.033.525-8.407 2.633-8.268 4.218z"/>
                        <path fill="#19A184" fill-opacity=".5" d="M996.34 978.86c.806.678 2.881-.014 8.291-.133 3.607-.08 6.185 1.466 7.736 4.636-1.815-5.21-4.734-7.64-8.756-7.29-3.566.31-5.812 1.1-7.049 1.22-.856.083-1.035.883-.221 1.567z"/>
                        <path fill="#43C59E" d="M987.816 957.92c1.909 1.43 3.159-1.326 8.601-8.507 2.928-3.862 4.324-3.519 5.522 2.444.205 1.02.872 3.792 2 8.317-.586-12.226-1.88-18.484-3.882-18.772-3.77-.544-6.666.517-8.687 3.183-5.442 7.18-5.462 11.906-3.554 13.336z"/>
                        <path fill="#43C59E" d="M989.838 974.625c1.909 1.43 3.159-1.327 8.601-8.508 2.928-3.862 4.323-3.52 5.522 2.444.205 1.02.872 3.792 2 8.317-.587-12.226-1.88-18.484-3.882-18.772-3.77-.544-6.666.517-8.687 3.183-5.442 7.18-5.462 11.906-3.554 13.336z"/>
                        <path fill="#2EB390" d="M991.013 974.82c1.561-.212 3.96-2.964 8.135-9.28 2.002-3.031 3.564-.851 4.985 4.295.37 1.337.93 3.588 1.68 6.753-.407-11.402-1.522-17.003-3.347-16.804-2.976.326-5.41 1.735-7.3 4.23-3.217 4.243-4.58 7.51-5.682 8.995-.762 1.028-.048 2.025 1.53 1.81z"/>
                        <path fill="#43C59E" d="M987.142 942.461c1.909 1.43 3.159-1.327 8.602-8.508 2.927-3.862 4.323-3.519 5.521 2.444.205 1.02.872 3.792 2 8.317-.586-12.226-1.88-18.483-3.882-18.772-3.77-.543-6.666.518-8.687 3.183-5.442 7.181-5.462 11.906-3.554 13.336z"/>
                        <path fill="#2EB390" d="M988.317 942.656c1.561-.211 3.96-2.964 8.135-9.28 2.003-3.03 3.564-.85 4.985 4.296.37 1.336.93 3.587 1.68 6.752-1.509-9.485-3.175-14.128-5-13.928-2.976.325-3.683 3.698-5.574 6.192-3.216 4.244-4.652 2.673-5.754 4.158-.763 1.027-.05 2.024 1.528 1.81z"/>
                        <path fill="#43C59E" d="M994.556 960.553c1.909 1.43 3.158-1.327 8.601-8.508 2.927-3.862 4.323-3.519 5.522 2.444.205 1.02.871 3.792 2 8.317-.587-12.226-1.88-18.483-3.882-18.772-3.771-.543-6.667.518-8.687 3.183-5.443 7.181-5.463 11.906-3.554 13.336z"/>
                        <path fill="#2EB390" d="M995.73 960.748c1.562-.211 3.96-2.964 8.135-9.28 2.003-3.03 3.565-.85 4.986 4.296.37 1.336.93 3.587 1.68 6.752-.407-11.401-1.522-17.002-3.347-16.803-2.976.325-5.41 1.735-7.3 4.23-3.217 4.243-4.58 7.51-5.682 8.995-.763 1.027-.049 2.024 1.529 1.81z"/>
                        <path fill="#43C59E" d="M988.153 970.604c-1.908 1.43-3.158-1.327-8.6-8.508-1.952-2.574-8.305-2.574-19.06 0 8.278-5.052 13.418-7.722 15.42-8.01 3.77-.544 6.666.517 8.686 3.182 5.443 7.181 5.463 11.906 3.554 13.336z"/>
                        <path fill="#34A885" d="M987.771 943.225c1.493-.756 2.72-1.336 1.356-3.996-.908-1.773-3.006-3.652-6.292-5.636-.317 3.81-.02 6.6.888 8.374 1.363 2.66 2.556 2.014 4.048 1.258zM985.006 952.484c1.493-.756 2.741-1.293-.39-7.404-2.089-4.074-8.3-6.325-18.637-6.753 6.733 2.253 11.144 5.417 13.232 9.49 3.132 6.112 4.303 5.423 5.795 4.667zM982.278 972.24c.838-1.443 1.59-2.57-4.384-5.999-3.982-2.286-10.425-.81-19.328 4.428 6.88-1.756 12.313-1.491 16.296.795 5.974 3.43 6.579 2.218 7.416.775z"/>
                        <path fill="#34A885" d="M982 975.243c0-1.239.064-2.243-5.112-2.243-3.45 0-7.08 3.333-10.888 10 3.808-3.676 7.438-5.514 10.888-5.514 5.176 0 5.112-1.004 5.112-2.243zM990.051 984.024c.239-.617.492-1.094-4.414-2.966-3.27-1.248-7.352-.901-12.244 1.042 4.317-.453 8.11-.056 11.382 1.192 4.906 1.873 5.038 1.35 5.276.732zM990.051 959.902c.239-.617.492-1.094-4.414-2.967-3.27-1.248-7.352-.9-12.244 1.042 4.317-.453 8.11-.055 11.382 1.193 4.906 1.872 5.038 1.349 5.276.732zM979.268 946.5c.238-.617.492-1.094-4.414-2.966-3.271-1.248-7.352-.901-12.244 1.042 4.316-.453 8.11-.056 11.381 1.192 4.906 1.873 5.039 1.35 5.277.732z"/>
                        <path fill="#43C59E" d="M989.678 974.817c.808-.583 1.513-.987-2.568-6.57-2.72-3.723-8.648-5.366-17.785-4.929 7.187.971 12.14 3.318 14.861 7.04 4.08 5.585 4.685 5.043 5.492 4.46z"/>
                    </g>
                </g>
            </g>
        </g>
    </g>
</svg>
